<?xml version="1.0" encoding="utf-8"?>
<!-- Generator: Adobe Illustrator 23.0.1, SVG Export Plug-In . SVG Version: 6.00 Build 0)  -->
<svg version="1.1" id="Calque_1" xmlns="http://www.w3.org/2000/svg" xmlns:xlink="http://www.w3.org/1999/xlink" x="0px" y="0px"
	 viewBox="0 0 200 200" style="enable-background:new 0 0 200 200;" xml:space="preserve">
<style type="text/css">
	.st0{clip-path:url(#SVGID_2_);fill:#1D1D1B;}
	.st1{fill:#1D1D1B;}
</style>
<g>
	<defs>
		<rect id="SVGID_1_" x="9" y="25.53" width="191" height="97.65"/>
	</defs>
	<clipPath id="SVGID_2_">
		<use xlink:href="#SVGID_1_"  style="overflow:visible;"/>
	</clipPath>
	<path class="st0" d="M142.01,117.53h10.09V66.08c0-1.01,0.32-1.46,0.96-1.46c0.85,0,1.06,0.56,1.06,1.34v51.57h10.09V62.61
		c0-2.35-0.96-6.16-5.2-6.16h-0.42c-2.97,0-6.69,2.13-7.01,9.53h-0.53l0.96-8.97h-9.98V117.53z M139.89,57H129.8v60.53h10.09V57z
		 M129.8,42.54h10.09v11.21H129.8V42.54z M117.17,109.13c0,0.78-0.11,1.34-0.85,1.34c-0.53,0-0.85-0.45-0.85-1.23V89.17
		c0-1.12-0.11-1.79,0.64-2.47l1.06-0.78V109.13z M118.97,106.1h0.85c-0.42,3.25-0.96,7.06-1.38,11.43h9.66v-8.74h-0.74
		c-0.32,0-0.43-0.11-0.43-0.45V64.62c0-6.17-3.82-8.07-10.19-8.07h-1.06c-5.63,0-9.56,2.24-9.56,8.07v14.24h9.24V64.85
		c0-0.78,0.11-1.23,0.85-1.23h0.11c0.64,0,0.85,0.45,0.85,1.23v14.01l-6.9,3.25c-3.61,1.68-4.35,3.59-4.35,7.51v21.97
		c0,3.14,1.59,6.39,4.99,6.39h0.21C117.17,117.98,118.97,112.6,118.97,106.1 M83.4,57v60.53h10.09v-50c0-0.67,0.21-1.01,0.74-1.01
		h0.11c0.43,0,0.64,0.34,0.64,1.01v18.05h8.81V61.15c0-2.58-1.59-4.82-4.46-4.82H98.8c-2.76,0-5.1,1.35-6.05,9.08h-0.64L93.38,57
		H83.4z M60.89,57v60.53h10.09v-50c0-0.67,0.21-1.01,0.74-1.01h0.11c0.42,0,0.64,0.34,0.64,1.01v18.05h8.81V61.15
		c0-2.58-1.59-4.82-4.46-4.82h-0.53c-2.76,0-5.1,1.35-6.05,9.08H69.6L70.87,57H60.89z M48.36,63.39h-0.11
		c-0.64,0-0.96,0.56-0.96,1.68v16.37h1.91V65.07C49.21,63.84,49.1,63.39,48.36,63.39 M58.77,90.41v18.16c0,6.16-3.61,9.64-9.56,9.64
		H47.3c-6.05,0-9.77-3.14-9.77-9.98V66.75c0-6.28,3.08-10.2,9.77-10.2h1.91c5.42,0,9.56,2.69,9.56,9.98v21.19H47.3v21.52
		c0,1.01,0.32,1.46,0.96,1.46h0.11c0.74,0,0.85-0.56,0.85-1.46V90.41H58.77z M35.41,117.53v-8.97H33.5c-0.64,0-0.96-0.34-0.96-1.12
		V65.86h2.87V57h-2.87V42.46H22.45V57h-3.08v8.86h3.08v47.42c0,3.03,1.7,4.26,3.5,4.26H35.41z"/>
</g>
<g>
	<path class="st1" d="M182.99,117.06v-2.21c0-1.11,0.66-1.78,1.61-1.78c0.76,0,1.26,0.43,1.44,1.02c0.11-0.59,0.61-1.15,1.46-1.15
		c1,0,1.68,0.72,1.68,1.86v2.26H182.99z M185.65,114.99c0-0.63-0.33-1.04-0.94-1.04c-0.6,0-0.93,0.35-0.93,1.04v1.19h1.87V114.99z
		 M188.38,114.96c0-0.74-0.33-1.13-0.98-1.13c-0.64,0-0.96,0.45-0.96,1.12v1.23h1.95V114.96z"/>
	<path class="st1" d="M186.08,112.05c-1.96,0-3.18-0.81-3.18-2.28c0-1.47,1.22-2.28,3.18-2.28c1.96,0,3.19,0.81,3.19,2.28
		C189.27,111.24,188.05,112.05,186.08,112.05z M188.47,109.75c0-0.91-0.9-1.38-2.39-1.38c-1.49,0-2.39,0.47-2.39,1.38v0.04
		c0,0.91,0.9,1.38,2.39,1.38c1.49,0,2.39-0.47,2.39-1.38V109.75z"/>
	<path class="st1" d="M187.03,102.36h2.15v0.88h-2.01c-0.35,0-0.48,0.13-0.48,0.48v1.72h2.49v0.88h-6.19v-2.15
		c0-1.08,0.7-1.9,1.66-1.9c0.75,0,1.28,0.36,1.53,0.99v-0.04C186.18,102.61,186.47,102.36,187.03,102.36z M184.81,103.16
		c-0.66,0-1.03,0.44-1.03,1.22v1.06h2.11v-1.06C185.9,103.67,185.49,103.16,184.81,103.16z"/>
	<path class="st1" d="M183.72,98.54h4.72v-1.27h0.73v3.43h-0.73v-1.27h-4.72v1.27h-0.73v-3.43h0.73V98.54z"/>
	<path class="st1" d="M187.17,95.96v-0.88c0.89-0.05,1.3-0.59,1.3-1.54v-0.04c0-0.81-0.44-1.24-0.97-1.24
		c-0.47,0-0.76,0.26-0.89,0.89l-0.21,0.98c-0.22,1.04-0.77,1.52-1.68,1.52c-0.96,0-1.81-0.8-1.81-2.16c0-1.4,0.8-2.19,1.96-2.22
		v0.88c-0.73,0.04-1.17,0.57-1.17,1.33v0.03c0,0.75,0.44,1.25,1,1.25c0.49,0,0.73-0.27,0.86-0.89l0.19-0.89
		c0.21-1.03,0.74-1.61,1.71-1.61c1.05,0,1.82,0.82,1.82,2.21C189.27,95.19,188.42,95.93,187.17,95.96z"/>
	<path class="st1" d="M186.08,85.18c-1.9,0-3.18-0.82-3.18-2.42c0-1.33,0.88-2,2.05-2.06v0.88c-0.72,0.04-1.26,0.43-1.26,1.15v0.05
		c0,0.98,0.93,1.51,2.39,1.51c1.48,0,2.39-0.52,2.39-1.51v-0.05c0-0.73-0.51-1.09-1.26-1.15V80.7c1.18,0.06,2.05,0.7,2.05,2.06
		C189.27,84.35,188.02,85.18,186.08,85.18z"/>
	<path class="st1" d="M182.99,79.6v-0.88h2.7v-2.37h-2.7v-0.88h6.19v0.88h-2.7v2.37h2.7v0.88H182.99z"/>
	<path class="st1" d="M187.59,71.05v2.19l1.59,0.48v0.88l-6.19-1.93v-1.12l6.19-1.9v0.91L187.59,71.05z M186.79,71.28l-2.88,0.87
		l2.88,0.86V71.28z"/>
	<path class="st1" d="M187.03,64.73h2.15v0.88h-2.01c-0.35,0-0.48,0.13-0.48,0.48v1.72h2.49v0.88h-6.19v-2.15
		c0-1.08,0.7-1.9,1.66-1.9c0.75,0,1.28,0.36,1.53,0.99v-0.04C186.18,64.97,186.47,64.73,187.03,64.73z M184.81,65.52
		c-0.66,0-1.03,0.44-1.03,1.22v1.06h2.11v-1.06C185.9,66.03,185.49,65.52,184.81,65.52z"/>
	<path class="st1" d="M182.99,59.22h6.19v0.82h-4.7l3.01,0.88v0.85l-3.01,0.88h4.7v0.81h-6.19V62.4l3.58-1.05l-3.58-1.05V59.22z"/>
	<path class="st1" d="M187.59,54.86v2.19l1.59,0.48v0.88l-6.19-1.93v-1.12l6.19-1.9v0.91L187.59,54.86z M186.79,55.09l-2.88,0.87
		l2.88,0.86V55.09z"/>
	<path class="st1" d="M183.78,51v1.76h-0.8v-4.41h0.8v1.76h5.4V51H183.78z"/>
	<path class="st1" d="M188.38,43.09h0.8v4.1h-0.83l-4.56-3.03v2.95h-0.8v-3.93h0.8l4.6,3.05V43.09z"/>
</g>
</svg>
